<?xml version="1.0" encoding="UTF-8"?>
<svg width="21px" height="29px" viewBox="0 0 21 29" version="1.1" xmlns="http://www.w3.org/2000/svg" xmlns:xlink="http://www.w3.org/1999/xlink">
    <!-- Generator: Sketch 49.2 (51160) - http://www.bohemiancoding.com/sketch -->
    <title>Group 4</title>
    <desc>Created with Sketch.</desc>
    <defs></defs>
    <g id="Symbols" stroke="none" stroke-width="1" fill="none" fill-rule="evenodd">
        <g id="OUI" transform="translate(-23.000000, -20.000000)">
            <g id="Group-2">
                <g id="Group-4" transform="translate(23.000000, 20.000000)">
                    <path d="M5.88,0 L15.7594523,0 C18.520876,-5.07265313e-16 20.7594523,2.23857625 20.7594523,5 C20.7594523,6.43950402 20.1390344,7.80916939 19.0569527,8.75852242 L9.17750045,17.4261569 C7.10172584,19.2473161 3.94263679,19.0409095 2.12147758,16.9651349 C1.32124376,16.0530208 0.88,14.881029 0.88,13.6676344 L0.88,5 C0.88,2.23857625 3.11857625,5.07265313e-16 5.88,0 Z" id="Rectangle-8" fill="#39C7EE"></path>
                    <path d="M5.88,9.70000076 L15.7594523,9.70000076 C18.520876,9.70000076 20.7594523,11.938577 20.7594523,14.7000008 C20.7594523,16.1395048 20.1390344,17.5091702 19.0569527,18.4585232 L9.17750045,27.1261576 C7.10172584,28.9473168 3.94263679,28.7409103 2.12147758,26.6651357 C1.32124376,25.7530215 0.88,24.5810298 0.88,23.3676352 L0.88,14.7000008 C0.88,11.938577 3.11857625,9.70000076 5.88,9.70000076 Z" id="Rectangle-8-Copy" fill="#F8BC21"></path>
                    <path d="M17.5898695,10.0456526 L9.17750045,17.4261569 C7.10172584,19.2473161 3.94263679,19.0409095 2.12147758,16.9651349 C1.43499805,16.182679 1.01270087,15.208978 0.906512362,14.1819539 C1.16570868,11.6639492 3.29350197,9.70000076 5.88,9.70000076 L15.7594523,9.70000076 C16.4055374,9.70000076 17.0230013,9.82254286 17.5898695,10.0456526 Z" id="Combined-Shape" fill="#E63971"></path>
                </g>
            </g>
        </g>
    </g>
</svg>