<?xml version="1.0" standalone="no"?>
<!DOCTYPE svg PUBLIC "-//W3C//DTD SVG 20010904//EN"
 "http://www.w3.org/TR/2001/REC-SVG-20010904/DTD/svg10.dtd">
<svg version="1.0" xmlns="http://www.w3.org/2000/svg"
 width="928.000000pt" height="928.000000pt" viewBox="0 0 928.000000 928.000000"
 preserveAspectRatio="xMidYMid meet">
<metadata>
Created by potrace 1.11, written by Peter Selinger 2001-2013
</metadata>
<g transform="translate(0.000000,928.000000) scale(0.100000,-0.100000)"
fill="#000000" stroke="none">
<path d="M2910 9265 c-174 -30 -313 -76 -465 -152 -437 -220 -735 -604 -853
-1098 l-26 -110 -4 -3095 c-2 -2258 0 -3121 8 -3190 74 -621 497 -1142 1087
-1338 322 -108 685 -108 1008 -1 169 56 371 166 500 272 28 23 780 682 1673
1465 1119 981 1645 1450 1693 1506 372 435 489 1016 313 1555 -133 408 -443
759 -835 945 l-91 43 249 219 c337 297 390 353 499 519 352 541 346 1236 -15
1770 -234 347 -572 575 -1003 677 l-93 22 -1785 2 c-1418 1 -1800 -1 -1860
-11z"/>
</g>
</svg>
